HIERARCHY
ROOT Hips
{
	OFFSET 0.000000 0.000000 0.000000
	CHANNELS 6 Xposition Yposition Zposition Zrotation Yrotation Xrotation 
	JOINT Spine1
	{
		OFFSET -0.013727 5.003763 -0.053727
		CHANNELS 3 Zrotation Yrotation Xrotation
		JOINT Spine2
		{
			OFFSET -0.000000 7.125302 -0.029825
			CHANNELS 3 Zrotation Yrotation Xrotation
			JOINT Chest
			{
				OFFSET -0.000001 7.550064 -0.815971
				CHANNELS 3 Zrotation Yrotation Xrotation
				JOINT Neck1
				{
					OFFSET -0.181677 26.311296 -0.553349
					CHANNELS 3 Zrotation Yrotation Xrotation
					JOINT Neck2
					{
						OFFSET -0.000003 7.709397 2.302586
						CHANNELS 3 Zrotation Yrotation Xrotation
						JOINT Head
						{
							OFFSET -0.000005 6.128913 1.953708
							CHANNELS 3 Zrotation Yrotation Xrotation
							JOINT HeadEnd
							{
								OFFSET 0.003598 16.065401 -1.835379
								CHANNELS 3 Zrotation Yrotation Xrotation
								End Site
								{
									OFFSET 0.000000 0.000000 0.000000
								}
							}
							JOINT Jaw
							{
								OFFSET 0.002637 0.475592 3.094940
								CHANNELS 3 Zrotation Yrotation Xrotation
								End Site
								{
									OFFSET 0.000000 0.000000 0.000000
								}
							}
							JOINT LeftEye
							{
								OFFSET 3.206380 5.380208 7.586883
								CHANNELS 3 Zrotation Yrotation Xrotation
								End Site
								{
									OFFSET 0.000000 0.000000 0.000000
								}
							}
							JOINT RightEye
							{
								OFFSET -3.222440 5.361867 7.558233
								CHANNELS 3 Zrotation Yrotation Xrotation
								End Site
								{
									OFFSET 0.000000 0.000000 0.000000
								}
							}
						}
					}
				}
				JOINT LeftShoulder
				{
					OFFSET 1.621652 23.237164 5.113413
					CHANNELS 3 Zrotation Yrotation Xrotation
					JOINT LeftArm
					{
						OFFSET 14.919845 -0.000000 -5.502326
						CHANNELS 3 Zrotation Yrotation Xrotation
						JOINT LeftForeArm
						{
							OFFSET 28.739309 0.000003 -0.002588
							CHANNELS 3 Zrotation Yrotation Xrotation
							JOINT LeftHand
							{
								OFFSET 27.093979 -0.000003 0.002609
								CHANNELS 3 Zrotation Yrotation Xrotation
								JOINT LeftHandThumb1
								{
									OFFSET 2.276480 -1.392045 3.191413
									CHANNELS 3 Zrotation Yrotation Xrotation
									JOINT LeftHandThumb2
									{
										OFFSET 4.012842 -1.828125 1.641655
										CHANNELS 3 Zrotation Yrotation Xrotation
										JOINT LeftHandThumb3
										{
											OFFSET 2.798516 0.000000 -0.000004
											CHANNELS 3 Zrotation Yrotation Xrotation
											JOINT LeftHandThumbEnd
											{
												OFFSET 3.180791 -0.000002 0.000003
												CHANNELS 3 Zrotation Yrotation Xrotation
												End Site
												{
													OFFSET 0.000000 0.000000 0.000000
												}
											}
										}
									}
								}
								JOINT LeftHandIndex1
								{
									OFFSET 3.247553 -0.531998 2.296170
									CHANNELS 3 Zrotation Yrotation Xrotation
									JOINT LeftHandIndex2
									{
										OFFSET 6.364580 0.012062 0.178599
										CHANNELS 3 Zrotation Yrotation Xrotation
										JOINT LeftHandIndex3
										{
											OFFSET 3.662366 0.000000 0.000000
											CHANNELS 3 Zrotation Yrotation Xrotation
											JOINT LeftHandIndex4
											{
												OFFSET 2.329243 0.000003 0.000004
												CHANNELS 3 Zrotation Yrotation Xrotation
												JOINT LeftHandIndexEnd
												{
													OFFSET 2.759619 -0.180540 -0.113024
													CHANNELS 3 Zrotation Yrotation Xrotation
													End Site
													{
														OFFSET 0.000000 0.000000 0.000000
													}
												}
											}
										}
									}
								}
								JOINT LeftHandMiddle1
								{
									OFFSET 3.163499 0.240983 1.000332
									CHANNELS 3 Zrotation Yrotation Xrotation
									JOINT LeftHandMiddle2
									{
										OFFSET 6.190777 -0.259276 -1.002548
										CHANNELS 3 Zrotation Yrotation Xrotation
										JOINT LeftHandMiddle3
										{
											OFFSET 4.356522 -0.000007 0.000000
											CHANNELS 3 Zrotation Yrotation Xrotation
											JOINT LeftHandMiddle4
											{
												OFFSET 2.996875 -0.000005 0.000001
												CHANNELS 3 Zrotation Yrotation Xrotation
												JOINT LeftHandMiddleEnd
												{
													OFFSET 2.304294 -0.294571 -0.031740
													CHANNELS 3 Zrotation Yrotation Xrotation
													End Site
													{
														OFFSET 0.000000 0.000000 0.000000
													}
												}
											}
										}
									}
								}
								JOINT LeftHandRing1
								{
									OFFSET 2.882642 -0.053650 -0.322543
									CHANNELS 3 Zrotation Yrotation Xrotation
									JOINT LeftHandRing2
									{
										OFFSET 5.854541 -0.486204 -1.373841
										CHANNELS 3 Zrotation Yrotation Xrotation
										JOINT LeftHandRing3
										{
											OFFSET 4.350581 -0.000000 0.000004
											CHANNELS 3 Zrotation Yrotation Xrotation
											JOINT LeftHandRing4
											{
												OFFSET 2.651324 0.000009 0.000004
												CHANNELS 3 Zrotation Yrotation Xrotation
												JOINT LeftHandRingEnd
												{
													OFFSET 1.936110 0.077685 -0.000070
													CHANNELS 3 Zrotation Yrotation Xrotation
													End Site
													{
														OFFSET 0.000000 0.000000 0.000000
													}
												}
											}
										}
									}
								}
								JOINT LeftHandPinky1
								{
									OFFSET 2.865499 -0.310004 -1.600378
									CHANNELS 3 Zrotation Yrotation Xrotation
									JOINT LeftHandPinky2
									{
										OFFSET 5.087852 -1.331142 -1.771231
										CHANNELS 3 Zrotation Yrotation Xrotation
										JOINT LeftHandPinky3
										{
											OFFSET 3.070976 0.000004 0.000000
											CHANNELS 3 Zrotation Yrotation Xrotation
											JOINT LeftHandPinky4
											{
												OFFSET 1.549667 0.000000 0.000001
												CHANNELS 3 Zrotation Yrotation Xrotation
												JOINT LeftHandPinkyEnd
												{
													OFFSET 1.944894 -0.157802 0.057219
													CHANNELS 3 Zrotation Yrotation Xrotation
													End Site
													{
														OFFSET 0.000000 0.000000 0.000000
													}
												}
											}
										}
									}
								}
							}
						}
					}
				}
				JOINT RightShoulder
				{
					OFFSET -1.380118 23.180307 5.214158
					CHANNELS 3 Zrotation Yrotation Xrotation
					JOINT RightArm
					{
						OFFSET -15.037197 0.000013 -5.545604
						CHANNELS 3 Zrotation Yrotation Xrotation
						JOINT RightForeArm
						{
							OFFSET -28.736639 0.000001 -0.002598
							CHANNELS 3 Zrotation Yrotation Xrotation
							JOINT RightHand
							{
								OFFSET -27.133619 0.000001 0.002612
								CHANNELS 3 Zrotation Yrotation Xrotation
								JOINT RightHandThumb1
								{
									OFFSET -2.274037 -1.383990 3.163127
									CHANNELS 3 Zrotation Yrotation Xrotation
									JOINT RightHandThumb2
									{
										OFFSET -4.011429 -1.827468 1.640914
										CHANNELS 3 Zrotation Yrotation Xrotation
										JOINT RightHandThumb3
										{
											OFFSET -2.794934 -0.000003 -0.000003
											CHANNELS 3 Zrotation Yrotation Xrotation
											JOINT RightHandThumbEnd
											{
												OFFSET -3.183855 0.000003 0.000001
												CHANNELS 3 Zrotation Yrotation Xrotation
												End Site
												{
													OFFSET 0.000000 0.000000 0.000000
												}
											}
										}
									}
								}
								JOINT RightHandIndex1
								{
									OFFSET -3.253269 -0.520060 2.282866
									CHANNELS 3 Zrotation Yrotation Xrotation
									JOINT RightHandIndex2
									{
										OFFSET -6.341918 0.012473 0.178265
										CHANNELS 3 Zrotation Yrotation Xrotation
										JOINT RightHandIndex3
										{
											OFFSET -3.654874 -0.000009 -0.000001
											CHANNELS 3 Zrotation Yrotation Xrotation
											JOINT RightHandIndex4
											{
												OFFSET -2.327587 0.000001 0.000001
												CHANNELS 3 Zrotation Yrotation Xrotation
												JOINT RightHandIndexEnd
												{
													OFFSET -2.761788 -0.180657 -0.113079
													CHANNELS 3 Zrotation Yrotation Xrotation
													End Site
													{
														OFFSET 0.000000 0.000000 0.000000
													}
												}
											}
										}
									}
								}
								JOINT RightHandMiddle1
								{
									OFFSET -3.168105 0.246593 1.001030
									CHANNELS 3 Zrotation Yrotation Xrotation
									JOINT RightHandMiddle2
									{
										OFFSET -6.180829 -0.258836 -1.000896
										CHANNELS 3 Zrotation Yrotation Xrotation
										JOINT RightHandMiddle3
										{
											OFFSET -4.348905 -0.000001 -0.000001
											CHANNELS 3 Zrotation Yrotation Xrotation
											JOINT RightHandMiddle4
											{
												OFFSET -3.000243 -0.000004 -0.000002
												CHANNELS 3 Zrotation Yrotation Xrotation
												JOINT RightHandMiddleEnd
												{
													OFFSET -2.302518 -0.294372 -0.031706
													CHANNELS 3 Zrotation Yrotation Xrotation
													End Site
													{
														OFFSET 0.000000 0.000000 0.000000
													}
												}
											}
										}
									}
								}
								JOINT RightHandRing1
								{
									OFFSET -2.885694 -0.067952 -0.308858
									CHANNELS 3 Zrotation Yrotation Xrotation
									JOINT RightHandRing2
									{
										OFFSET -5.854197 -0.486132 -1.373732
										CHANNELS 3 Zrotation Yrotation Xrotation
										JOINT RightHandRing3
										{
											OFFSET -4.338814 -0.000003 -0.000000
											CHANNELS 3 Zrotation Yrotation Xrotation
											JOINT RightHandRing4
											{
												OFFSET -2.654905 -0.000005 0.000004
												CHANNELS 3 Zrotation Yrotation Xrotation
												JOINT RightHandRingEnd
												{
													OFFSET -1.933570 0.077524 -0.000052
													CHANNELS 3 Zrotation Yrotation Xrotation
													End Site
													{
														OFFSET 0.000000 0.000000 0.000000
													}
												}
											}
										}
									}
								}
								JOINT RightHandPinky1
								{
									OFFSET -2.866429 -0.342798 -1.584145
									CHANNELS 3 Zrotation Yrotation Xrotation
									JOINT RightHandPinky2
									{
										OFFSET -5.091369 -1.332054 -1.772385
										CHANNELS 3 Zrotation Yrotation Xrotation
										JOINT RightHandPinky3
										{
											OFFSET -3.062666 -0.000007 0.000000
											CHANNELS 3 Zrotation Yrotation Xrotation
											JOINT RightHandPinky4
											{
												OFFSET -1.546526 0.000004 -0.000002
												CHANNELS 3 Zrotation Yrotation Xrotation
												JOINT RightHandPinkyEnd
												{
													OFFSET -1.945122 -0.157720 0.057211
													CHANNELS 3 Zrotation Yrotation Xrotation
													End Site
													{
														OFFSET 0.000000 0.000000 0.000000
													}
												}
											}
										}
									}
								}
							}
						}
					}
				}
			}
		}
	}
	JOINT LeftLeg
	{
		OFFSET 10.043214 -8.434527 2.595655
		CHANNELS 3 Zrotation Yrotation Xrotation
		JOINT LeftShin
		{
			OFFSET -0.000001 -43.221752 -0.802913
			CHANNELS 3 Zrotation Yrotation Xrotation
			JOINT LeftFoot
			{
				OFFSET 0.000001 -42.155094 -3.481523
				CHANNELS 3 Zrotation Yrotation Xrotation
				JOINT LeftToeBase
				{
					OFFSET 0.000000 -5.059475 13.231529
					CHANNELS 3 Zrotation Yrotation Xrotation
					JOINT LeftToeEnd
					{
						OFFSET -0.009607 -1.647615 6.513017
						CHANNELS 3 Zrotation Yrotation Xrotation
						End Site
						{
							OFFSET 0.000000 0.000000 0.000000
						}
					}
				}
			}
		}
	}
	JOINT RightLeg
	{
		OFFSET -10.047277 -8.295259 2.620317
		CHANNELS 3 Zrotation Yrotation Xrotation
		JOINT RightShin
		{
			OFFSET 0.000001 -43.362209 -0.805556
			CHANNELS 3 Zrotation Yrotation Xrotation
			JOINT RightFoot
			{
				OFFSET 0.000002 -42.117393 -3.478399
				CHANNELS 3 Zrotation Yrotation Xrotation
				JOINT RightToeBase
				{
					OFFSET -0.000001 -5.079609 13.284196
					CHANNELS 3 Zrotation Yrotation Xrotation
					JOINT RightToeEnd
					{
						OFFSET 0.009532 -1.634383 6.460591
						CHANNELS 3 Zrotation Yrotation Xrotation
						End Site
						{
							OFFSET 0.000000 0.000000 0.000000
						}
					}
				}
			}
		}
	}
}
MOTION
Frames: 4
Frame Time: 0.033333
2.882354 95.994225 5.461991 0.005396 -0.099193 2.268648 -0.527860 -0.220294 0.271325 -0.917530 -1.123149 -4.674670 -1.841375 -3.407795 10.317251 -7.111773 8.116897 13.798163 2.566730 12.477397 -3.200755 -4.188137 14.596316 -12.315688 0.000077 -0.000021 0.000007 0.024864 -0.181276 -0.014995 0.764570 -3.928843 -10.677605 -0.721893 3.576373 -10.638827 2.145688 -8.888889 12.056808 -16.753216 -30.679686 -57.038158 179.972229 -54.701962 -179.698303 6.927390 -8.716745 -2.874288 -5.882101 9.861278 0.702591 -10.936858 -0.360574 7.156195 0.000001 8.774813 -0.000002 -16.997370 17.836637 5.553640 -1.844028 2.498503 -2.507277 -10.163589 4.678939 4.621103 -20.975996 -0.000006 0.000000 -21.226255 2.451690 -3.593994 0.000001 -0.000007 -0.000000 -1.362682 2.240796 -0.746323 -21.334887 0.584907 3.008318 -13.821197 -0.000004 0.000001 -23.887129 -0.249079 -0.839481 -60.667252 2.537536 -1.353006 -0.294023 1.679686 0.833255 -14.218195 0.093213 1.300578 -34.211998 -0.287567 0.967169 -20.033180 0.964533 1.212842 0.000001 0.000002 -0.000000 -3.440387 0.788233 0.501655 -15.928164 -3.167307 2.999702 -6.338815 -0.000002 0.000002 -18.123415 3.648174 -4.905663 -0.000004 -0.000001 -0.000002 0.308791 -1.492621 13.854647 47.967442 81.807068 -1.958416 -179.642792 43.781864 -179.543411 -7.308674 -1.937536 -13.134981 2.243542 -5.255033 -3.180157 14.282877 -0.826593 6.952496 -0.000002 -12.690588 0.000001 16.187668 -17.715322 2.351356 1.665665 -1.955920 -2.878298 4.727794 -4.170583 4.993918 11.020514 0.000004 -0.000002 12.109034 -3.735710 -2.866781 0.000000 0.000000 0.000001 1.291985 -1.928547 -1.498089 14.800114 0.567468 3.865602 14.242554 -1.341734 -6.660650 19.631941 0.143925 -0.648245 49.703735 -0.898953 -6.425120 0.353027 -1.511149 -0.031940 20.222773 3.684304 2.316627 18.787245 0.000005 -0.000002 10.751611 -0.479868 1.397903 -0.000000 -0.000001 0.000000 3.273804 0.305946 -0.580109 21.486790 11.830360 2.266129 8.162916 0.000002 -0.000000 18.399050 -3.798979 -4.940567 0.000003 0.000000 -0.000001 12.020196 16.619402 -24.375454 -0.177588 -0.599102 20.776358 -12.800655 0.703091 7.361221 1.646716 -1.797115 0.320497 0.000000 0.000000 0.000002 -8.881931 -5.474301 -8.408571 0.159810 0.485113 28.326078 11.782025 0.236475 -19.282352 -1.433179 1.001371 -0.124861 0.000000 0.000000 -0.000001 
2.900252 95.970284 5.589289 0.046545 -0.222931 2.138633 -0.548747 -0.202265 0.238531 -0.863285 -1.179796 -4.717435 -1.875478 -3.379196 10.425481 -7.235369 8.073745 13.761811 2.597266 12.658524 -3.196048 -4.218936 14.763100 -12.240781 0.000077 -0.000021 0.000007 0.029252 -0.173863 -0.013949 0.759900 -3.924576 -10.708510 -0.710726 3.592031 -10.672928 1.986771 -8.812613 12.041862 -16.700371 -30.684858 -56.727684 179.840942 -54.734634 -179.776825 6.946332 -9.008649 -3.395289 -5.882102 9.861278 0.702588 -10.936860 -0.360575 7.156198 0.000001 8.774816 0.000000 -16.916039 17.815125 5.621029 -1.844031 2.498503 -2.507277 -10.163591 4.678941 4.621105 -20.975994 -0.000005 0.000002 -21.226248 2.451694 -3.593994 0.000001 -0.000006 -0.000001 -1.362680 2.240797 -0.746324 -21.334892 0.584909 3.008321 -13.821195 -0.000004 0.000002 -23.887129 -0.249077 -0.839481 -60.624107 2.455429 -1.277534 -0.294026 1.679686 0.833255 -14.218190 0.093214 1.300577 -34.212006 -0.287562 0.967170 -20.033176 0.964535 1.212841 0.000000 0.000002 -0.000000 -3.440387 0.788233 0.501655 -15.928167 -3.167306 2.999705 -6.338814 -0.000001 0.000001 -18.123413 3.648176 -4.905662 -0.000004 -0.000001 -0.000002 0.380276 -1.542099 13.946661 48.067692 81.911812 -2.004145 -179.768280 43.760010 -179.675583 -7.310286 -1.886693 -13.580665 2.243541 -5.255032 -3.180157 14.282878 -0.826594 6.952497 -0.000002 -12.690587 0.000001 16.175459 -17.638624 2.374211 1.665665 -1.955920 -2.878295 4.727792 -4.170582 4.993919 11.020511 0.000003 -0.000002 12.109033 -3.735708 -2.866779 0.000001 -0.000000 -0.000000 1.291984 -1.928548 -1.498086 14.800114 0.567466 3.865603 14.242553 -1.341734 -6.660649 19.631939 0.143923 -0.648243 49.598030 -0.904770 -6.345932 0.353028 -1.511149 -0.031940 20.222771 3.684305 2.316629 18.787245 0.000005 0.000001 10.751610 -0.479867 1.397905 -0.000000 0.000001 0.000000 3.273805 0.305946 -0.580110 21.486794 11.830361 2.266132 8.162915 0.000003 -0.000000 18.399054 -3.798977 -4.940567 0.000003 -0.000002 -0.000001 12.135561 16.281330 -24.215534 -0.177946 -0.569950 21.064917 -12.740509 1.050856 7.044244 1.646856 -1.822068 0.313230 0.000000 -0.000000 0.000002 -8.979842 -5.490357 -8.200564 0.134520 0.467512 28.308981 11.827735 0.459012 -19.331514 -1.435465 0.992873 -0.144588 0.000000 0.000000 -0.000001 
3.012914 95.906387 5.792047 0.077162 -0.272896 2.035386 -0.535787 -0.206498 0.187550 -0.850882 -1.182542 -4.751651 -1.911073 -3.371342 10.476067 -7.309074 8.014319 13.786337 2.622228 12.822118 -3.205057 -4.250401 14.900979 -12.199106 0.000077 -0.000022 0.000006 0.030924 -0.167725 -0.007505 0.753351 -3.921240 -10.728222 -0.701859 3.593186 -10.695562 1.924531 -8.800460 11.974874 -16.791008 -30.721632 -56.433277 179.942520 -54.771206 -179.922684 6.880239 -9.242531 -3.835594 -5.882100 9.861278 0.702589 -10.936858 -0.360576 7.156196 0.000002 8.774812 -0.000002 -16.822874 17.787399 5.672380 -1.844031 2.498502 -2.507274 -10.163591 4.678940 4.621106 -20.975996 -0.000004 0.000003 -21.226255 2.451694 -3.593992 -0.000000 -0.000006 -0.000000 -1.362680 2.240796 -0.746323 -21.334887 0.584907 3.008321 -13.821195 -0.000004 0.000001 -23.887129 -0.249081 -0.839479 -60.650539 2.446692 -1.272787 -0.294026 1.679687 0.833255 -14.218190 0.093213 1.300579 -34.212006 -0.287563 0.967172 -20.033175 0.964535 1.212843 -0.000000 0.000001 -0.000000 -3.440384 0.788233 0.501656 -15.928169 -3.167309 2.999705 -6.338817 -0.000003 0.000001 -18.123413 3.648174 -4.905658 -0.000003 -0.000001 -0.000002 0.446534 -1.592544 13.971162 48.830276 81.961311 -1.452654 -179.937683 43.821026 -179.801025 -7.294246 -1.827513 -13.978263 2.243539 -5.255032 -3.180156 14.282878 -0.826594 6.952495 -0.000001 -12.690588 0.000003 16.068878 -17.573782 2.375066 1.665663 -1.955919 -2.878296 4.727797 -4.170584 4.993918 11.020513 0.000002 -0.000002 12.109032 -3.735710 -2.866780 0.000000 0.000000 0.000000 1.291984 -1.928548 -1.498090 14.800114 0.567467 3.865603 14.242553 -1.341736 -6.660649 19.631937 0.143925 -0.648245 49.498024 -0.895291 -6.352742 0.353029 -1.511149 -0.031941 20.222773 3.684305 2.316629 18.787249 0.000004 0.000001 10.751612 -0.479870 1.397904 -0.000000 -0.000001 0.000000 3.273806 0.305947 -0.580111 21.486792 11.830362 2.266130 8.162916 -0.000000 0.000000 18.399054 -3.798978 -4.940568 0.000003 0.000000 -0.000001 12.157207 16.052065 -24.210413 -0.165204 -0.525614 21.628357 -12.624168 1.232450 6.453837 1.643718 -1.821444 0.395148 0.000000 -0.000000 0.000002 -9.136584 -5.519254 -7.892950 0.136603 0.459978 28.174700 11.918343 0.652511 -19.528181 -1.437863 0.993813 -0.117918 0.000000 0.000000 -0.000001 
3.034086 95.838654 5.911282 0.071445 -0.321277 1.954942 -0.512696 -0.186882 0.121597 -0.844985 -1.208519 -4.781734 -1.918236 -3.380461 10.494400 -7.392038 7.989701 13.830386 2.662553 12.932396 -3.233621 -4.251048 15.029291 -12.135114 0.000077 -0.000024 0.000007 0.032181 -0.179779 -0.007508 0.747608 -3.929407 -10.738895 -0.693776 3.583135 -10.707223 1.912782 -8.757823 11.916916 -16.990149 -30.752197 -56.146206 -179.870102 -54.780064 179.883896 6.793918 -9.390378 -4.147657 -5.882101 9.861279 0.702591 -10.936858 -0.360575 7.156196 0.000001 8.774813 -0.000001 -16.746996 17.765030 5.703930 -1.844031 2.498503 -2.507276 -10.163589 4.678940 4.621102 -20.975992 -0.000004 -0.000001 -21.226254 2.451692 -3.593995 0.000000 -0.000008 -0.000000 -1.362679 2.240797 -0.746322 -21.334887 0.584909 3.008320 -13.821197 -0.000002 -0.000000 -23.887125 -0.249079 -0.839483 -60.648895 2.472714 -1.287629 -0.294026 1.679686 0.833255 -14.218190 0.093215 1.300578 -34.211998 -0.287562 0.967168 -20.033178 0.964535 1.212840 0.000000 0.000000 0.000000 -3.440383 0.788233 0.501654 -15.928167 -3.167306 2.999703 -6.338816 -0.000000 0.000002 -18.123411 3.648178 -4.905664 -0.000004 -0.000002 -0.000002 0.499391 -1.605594 13.962039 49.630184 81.927582 -0.964981 179.884293 43.918751 -179.970566 -7.249657 -1.785233 -14.455820 2.243541 -5.255033 -3.180156 14.282873 -0.826593 6.952497 -0.000001 -12.690590 0.000000 15.944499 -17.563509 2.386773 1.665666 -1.955921 -2.878296 4.727792 -4.170582 4.993919 11.020515 0.000004 0.000000 12.109033 -3.735708 -2.866780 0.000000 0.000000 0.000000 1.291982 -1.928548 -1.498088 14.800117 0.567468 3.865605 14.242553 -1.341733 -6.660648 19.631939 0.143925 -0.648242 49.479156 -0.888408 -6.355249 0.353030 -1.511149 -0.031941 20.222771 3.684306 2.316629 18.787247 0.000005 0.000001 10.751610 -0.479869 1.397905 -0.000000 -0.000001 0.000000 3.273805 0.305947 -0.580110 21.486795 11.830363 2.266134 8.162916 0.000002 0.000000 18.399054 -3.798977 -4.940567 0.000003 -0.000001 -0.000001 12.237496 15.924560 -24.235163 -0.146656 -0.487253 22.070465 -12.529638 1.359617 6.060006 1.640123 -1.823328 0.453741 -0.000000 0.000000 0.000002 -9.179898 -5.550201 -7.692672 0.130403 0.438150 28.090057 11.981472 0.774315 -19.779972 -1.438662 1.010497 -0.067724 0.000000 0.000000 -0.000001 
